<!-- icon666.com - MILLIONS vector ICONS FREE --><svg clip-rule="evenodd" fill-rule="evenodd" image-rendering="optimizeQuality" shape-rendering="geometricPrecision" text-rendering="geometricPrecision" viewBox="0 0 173.397 173.397" xmlns="http://www.w3.org/2000/svg"><g id="Layer_x0020_1"><path d="m32.0082 80.2305c.9264-.0002 1.6714.7486 1.6714 1.6713.0001.9226-.7452 1.6713-1.671 1.6712l26.7816.0001c.9227 0 1.6716-.7487 1.6712-1.6713 0-.9227-.7485-1.6715-1.6705-1.6715zm89.496 61.8628.0004-75.8124v-1.0082c0-.805.1116-1.5845.3202-2.3239-8.4643-1.4457-15.7481-8.0912-22.8025-20.7672-1.4275-2.5661-2.2661-5.3587-3.0814-8.0639-1.6781-5.5848-3.412-11.3578-10.334-14.0908-5.3201-2.1031-11.336-1.1143-15.7063 2.58-4.4324 3.7533-6.2879 9.6723-5.0834 16.2426.6023 3.2937 3.1826 12.5935 6.9256 18.4883h-39.7346c-6.6884 0-12.1337 5.8841-12.134 13.1193 0 3.8876 1.5738 7.3858 4.0684 9.7898 2.1459 2.0679 4.9731 3.3261 8.066 3.3261h-7.3467c-6.156 0-11.1593 4.5647-11.1593 10.1774.0005 5.6126 5.0033 10.1771 11.1591 10.1771h6.4761 27.7784c.9221 0 1.6706.7488 1.6706 1.6714.0004.9225-.7486 1.6712-1.6712 1.6712h-27.7773c-4.9166 0-8.9174 3.9971-8.9174 8.9168.0007 2.3781.9366 4.6239 2.6392 6.3196 1.6789 1.6745 3.8962 2.5974 6.2394 2.5974h.0313l10.3413-.0384c-3.5162.0008-6.7423 1.2711-9.2432 3.3768-3.1344 2.6391-5.1299 6.5905-5.13 10.9996 0 7.928 6.4523 14.3762 14.3764 14.3762h65.8795c5.5226.0001 10.67-2.318 14.3117-6.2703-.1065-.5386-.1623-1.0952-.1623-1.6646z" fill="#ffe0b2"></path><g id="_297970592"><path id="_297970976" d="m31.1383 107.27h-6.4764c-7.9978 0-14.5019-6.0653-14.5019-13.5197.0003-7.4548 6.504-13.5199 14.5017-13.5199l34.1292-.0002c.922 0 1.6705.7488 1.6705 1.6715.0004.9226-.7485 1.6713-1.6712 1.6713l-34.1283-.0001c-6.156 0-11.1593 4.5647-11.1593 10.1774.0005 5.6126 5.0033 10.1771 11.1591 10.1771h6.4766c.9228 0 1.6708.7488 1.6708 1.6714.0002.9225-.7487 1.6712-1.6708 1.6712z"></path><path id="_297971192" d="m31.0999 128.446c-3.2346 0-6.2885-1.2673-8.6004-3.5722-2.3359-2.3261-3.6211-5.4107-3.6211-8.6872.0004-6.7617 5.5012-12.2594 12.2594-12.2594h27.7784c.9221 0 1.6706.7488 1.6706 1.6714.0004.9225-.7486 1.6712-1.6712 1.6712h-27.7773c-4.9166 0-8.9174 3.9971-8.9174 8.9168.0007 2.3781.9366 4.6239 2.6392 6.3196 1.6789 1.6745 3.8962 2.5974 6.2394 2.5974h.0313l10.3413-.0384s.0031.0001.0031.0001c.9229-.0001 1.6679.7451 1.6713 1.6642.0037.9227-.7417 1.6748-1.6643 1.6783l-10.3369.0382c-.0141 0-.0318 0-.0454 0z"></path><path id="_297971168" d="m107.355 153.818h-65.8795c-7.9241 0-14.3764-6.4482-14.3764-14.3762.0002-7.9282 6.4518-14.3763 14.3763-14.3763l16.8174-.0001c.9229 0 1.671.7487 1.671 1.6713 0 .9227-.7486 1.6713-1.6713 1.6713h-16.817c-6.0824 0-11.0339 4.9511-11.0339 11.0338.0004 6.0861 4.9511 11.0338 11.0338 11.0338l65.8796-.0001c6.0368 0 11.5311-3.3459 14.3409-8.7392.4254-.8183 1.4345-1.135 2.2527-.7068.8183.4247 1.1386 1.4345.7103 2.2527-3.3836 6.5003-10.0171 10.5359-17.3039 10.5358z"></path><path id="_297970568" d="m32.0086 83.573c-6.6886 0-12.1344-5.8842-12.1344-13.1159.0003-7.2352 5.4456-13.1193 12.134-13.1193h39.7346c-3.743-5.8948-6.3233-15.1946-6.9256-18.4883-1.2045-6.5703.651-12.4893 5.0834-16.2426 4.3703-3.6943 10.3862-4.6831 15.7063-2.58 6.922 2.733 8.6559 8.506 10.334 14.0908.8153 2.7052 1.6539 5.4978 3.0814 8.0639 7.4754 13.4325 15.2085 20.0933 24.3308 20.9707.9192.087 1.5912.9018 1.5041 1.821-.0905.9192-.9088 1.5947-1.8245 1.5042-10.1737-.9751-18.9827-8.3912-26.9281-22.67-1.6046-2.883-2.5-5.8529-3.3635-8.7254-1.6467-5.4804-2.9491-9.8081-8.3632-11.946-4.1712-1.6504-8.8925-.874-12.3185 2.0229-3.4956 2.9594-4.9373 7.7296-3.9554 13.088.7316 4.0039 4.1364 15.3305 8.2171 19.6095.4598.484.5883 1.1977.3237 1.8105-.2611.6164-.867 1.0132-1.5354 1.0132l-43.1008-.0001c-4.8469 0-8.7919 4.3872-8.7919 9.777.0006 5.3897 3.9449 9.7734 8.7915 9.7734.9264-.0002 1.6714.7486 1.6714 1.6713.0001.9226-.7452 1.6713-1.671 1.6712z"></path><path id="_297970496" d="m130.084 60.0395c-2.8861 0-5.2369 2.3469-5.2369 5.2333l.0006 80.6102c0 2.8865 2.3495 5.2369 5.236 5.2369l24.578-.0001c2.8868 0 5.2331-2.3502 5.2331-5.2366v-80.6105c0-2.8865-2.3468-5.2331-5.2331-5.2331l-24.5777-.0001zm24.5777 94.4193h-24.5777c-4.7287 0-8.5795-3.8473-8.5795-8.5756l.0004-80.6105c0-4.7283 3.8504-8.5756 8.5788-8.5756h24.578c4.7286 0 8.5756 3.8473 8.5756 8.5757l.0003 80.6102c0 4.7285-3.8477 8.5759-8.5759 8.5758z"></path><path id="_297970472" d="m142.371 144.675c-.9221 0-1.6712-.7484-1.6712-1.6712l.0002-40.2147c0-.9226.7484-1.6712 1.671-1.6712.9268-.0001 1.6712.7486 1.6712 1.6712l.0005 40.2146c0 .9228-.7455 1.6714-1.6717 1.6713z"></path><path id="_297970208" d="m138.945 69.8826c-.2365 0-.439.202-.439.4387l.0003 19.8079c0 .2369.2018.4387.4385.4387h6.8558c.2374 0 .4351-.2018.4351-.4387l.0004-19.8079c0-.2368-.1988-.4386-.4356-.4386zm6.8556 24.0278h-6.8556c-2.0854 0-3.7814-1.6956-3.7814-3.7812l.0007-19.8079c0-2.0856 1.6949-3.7812 3.7805-3.7812l6.8558-.0002c2.0823 0 3.7776 1.6958 3.7776 3.7814v19.8079c0 2.0854-1.6956 3.7812-3.7776 3.7812z"></path></g><path d="m138.945 69.8826c-.2365 0-.439.202-.439.4387l.0003 19.8079c0 .2369.2018.4387.4385.4387h6.8558c.2374 0 .4351-.2018.4351-.4387l.0004-19.8079c0-.2368-.1988-.4386-.4356-.4386z" fill="#ffcc80"></path><path d="m149.578 70.3213v19.8079c0 2.0854-1.6956 3.7812-3.7776 3.7812h-6.8556c-2.0854 0-3.7814-1.6956-3.7814-3.7812l.0007-19.8079c0-2.0856 1.6949-3.7812 3.7805-3.7812l6.8558-.0002c2.0823 0 3.7776 1.6958 3.7776 3.7814zm-19.4942-10.2818c-2.7402 0-4.9978 2.1156-5.2191 4.7999-.0007.0443-.0031.089-.0074.1339-.0011.0116-.0024.0232-.0038.0348-.0044.0877-.0066.1759-.0066.2647l.0006 77.1699c.0019.0458.0019.0917 0 .1384v3.3019c0 2.8865 2.3495 5.2369 5.236 5.2369l24.578-.0001c2.8868 0 5.2331-2.3502 5.2331-5.2366v-80.6105c0-2.8865-2.3468-5.2331-5.2331-5.2331l-24.5777-.0001zm13.9581 42.7495.0005 40.2146c0 .9228-.7455 1.6714-1.6717 1.6713-.9221 0-1.6712-.7484-1.6712-1.6712l.0002-40.2147c0-.9226.7484-1.6712 1.671-1.6712.9268-.0001 1.6712.7486 1.6712 1.6712z" fill="#b39ddb"></path></g></svg>