<!-- icon666.com - MILLIONS vector ICONS FREE --><svg version="1.1" id="Capa_1" xmlns="http://www.w3.org/2000/svg" xmlns:xlink="http://www.w3.org/1999/xlink" x="0px" y="0px" viewBox="0 0 512 512" style="enable-background:new 0 0 512 512;" xml:space="preserve"><g><g><path d="M497,211H390v-45c0-5.682-3.21-10.875-8.292-13.417c-5.082-2.541-11.164-1.992-15.708,1.417l-6,4.5V75 c0-8.284-6.716-15-15-15H210V15c0-4.822-2.318-9.349-6.229-12.169c-3.912-2.819-8.94-3.586-13.514-2.062l-180,60 C4.131,62.812,0,68.544,0,75v362c0,6.457,4.131,12.189,10.257,14.23l180,60c4.529,1.511,9.566,0.785,13.514-2.062 C207.682,506.35,210,501.822,210,497v-45h135c8.284,0,15-6.716,15-15v-83.5l6,4.5c4.551,3.413,10.633,3.954,15.708,1.417 C386.79,356.876,390,351.682,390,346v-45h107c8.284,0,15-6.716,15-15v-60C512,217.716,505.284,211,497,211z M180,476.188l-150-50 V85.811l150-50V476.188z M330,422H210V90h120v91l-84,63c-3.777,2.833-6,7.279-6,12s2.223,9.167,6,12l84,63V422z M482,271H375 c-8.284,0-15,6.716-15,15v30l-80-60l80-60v30c0,8.284,6.716,15,15,15h107V271z"></path></g></g><g><g><circle cx="135" cy="256" r="15"></circle></g></g></svg>