<!-- icon666.com - MILLIONS vector ICONS FREE --><svg version="1.1" id="Capa_1" xmlns="http://www.w3.org/2000/svg" xmlns:xlink="http://www.w3.org/1999/xlink" x="0px" y="0px" viewBox="0 0 512 512" style="enable-background:new 0 0 512 512;" xml:space="preserve"><g transform="translate(-1)"><polygon style="fill:#FAEDBD;" points="506.116,106.205 322.349,0 260.356,133.466 233.51,117.968 107.032,191.239 107.032,317.786 134.362,333.561 134.362,333.63 7.884,406.902 78.734,447.723 110.561,466.058 190.405,512 316.676,438.867 345.251,455.334 471.729,382.063 471.729,255.516 444.122,239.602 "></polygon><polygon style="fill:#919D9E;" points="345.251,328.787 345.251,455.334 316.676,438.867 316.883,438.729 316.883,361.306 134.362,256.208 134.362,333.561 107.032,317.786 107.032,191.239 317.714,312.874 "></polygon><polygon style="fill:#445C71;" points="316.883,361.306 316.883,400.052 134.362,294.954 134.362,256.208 "></polygon><polygon style="fill:#717275;" points="444.122,239.602 444.053,239.671 382.682,275.235 198.916,169.098 260.356,133.466 "></polygon><polygon style="fill:#C9CED1;" points="471.729,255.516 345.251,328.787 317.714,312.874 107.032,191.239 233.51,117.968 260.356,133.466 198.916,169.098 382.682,275.235 444.053,239.671 444.122,239.602 "></polygon><polygon style="fill:#A5B4B4;" points="471.729,255.516 471.729,382.063 345.251,455.334 345.251,328.787 "></polygon><polygon style="fill:#394F63;" points="316.883,400.052 316.883,438.729 316.676,438.867 236.97,392.787 205.212,374.452 134.362,333.561 134.362,294.954 "></polygon><g><polygon style="fill:#C9CED1;" points="205.212,374.452 78.734,447.723 7.884,406.902 134.362,333.63 134.362,333.561 "></polygon><polygon style="fill:#C9CED1;" points="316.676,438.867 190.405,512 110.561,466.058 236.97,392.787 "></polygon></g><polygon style="fill:#A5B4B4;" points="236.97,392.787 110.561,466.058 78.734,447.723 205.212,374.452 "></polygon></g></svg>